<svg width="96" height="79" viewBox="0 0 96 79" fill="none" xmlns="http://www.w3.org/2000/svg">
<path d="M48.0416 77.3345L25.2071 54.5L48.0416 54.5H70.8762L48.0416 77.3345Z" fill="white" stroke="#FF00E5"/>
<rect x="0.5" y="0.5" width="95" height="55" rx="21.5" fill="white"/>
<path d="M18.517 19.5455H23.0682L27.875 31.2727H28.0795L32.8864 19.5455H37.4375V37H33.858V25.6392H33.7131L29.196 36.9148H26.7585L22.2415 25.5966H22.0966V37H18.517V19.5455ZM40.478 19.5455H45.0291L49.8359 31.2727H50.0405L54.8473 19.5455H59.3984V37H55.8189V25.6392H55.674L51.157 36.9148H48.7195L44.2024 25.5966H44.0575V37H40.478V19.5455ZM77.8395 25.6562H74.1065C74.0384 25.1733 73.8991 24.7443 73.6889 24.3693C73.4787 23.9886 73.2088 23.6648 72.8793 23.3977C72.5497 23.1307 72.169 22.9261 71.7372 22.7841C71.3111 22.642 70.848 22.571 70.348 22.571C69.4446 22.571 68.6577 22.7955 67.9872 23.2443C67.3168 23.6875 66.7969 24.3352 66.4276 25.1875C66.0582 26.0341 65.8736 27.0625 65.8736 28.2727C65.8736 29.517 66.0582 30.5625 66.4276 31.4091C66.8026 32.2557 67.3253 32.8949 67.9957 33.3267C68.6662 33.7585 69.4418 33.9744 70.3224 33.9744C70.8168 33.9744 71.2741 33.9091 71.6946 33.7784C72.1207 33.6477 72.4986 33.4574 72.8281 33.2074C73.1577 32.9517 73.4304 32.642 73.6463 32.2784C73.8679 31.9148 74.0213 31.5 74.1065 31.0341L77.8395 31.0511C77.7429 31.8523 77.5014 32.625 77.1151 33.3693C76.7344 34.108 76.2202 34.7699 75.5724 35.3551C74.9304 35.9347 74.1634 36.3949 73.2713 36.7358C72.3849 37.071 71.3821 37.2386 70.2628 37.2386C68.706 37.2386 67.3139 36.8864 66.0866 36.1818C64.8651 35.4773 63.8991 34.4574 63.1889 33.1222C62.4844 31.7869 62.1321 30.1705 62.1321 28.2727C62.1321 26.3693 62.4901 24.75 63.206 23.4148C63.9219 22.0795 64.8935 21.0625 66.1207 20.3636C67.348 19.6591 68.7287 19.3068 70.2628 19.3068C71.2741 19.3068 72.2116 19.4489 73.0753 19.733C73.9446 20.017 74.7145 20.4318 75.3849 20.9773C76.0554 21.517 76.6009 22.179 77.0213 22.9631C77.4474 23.7472 77.7202 24.6449 77.8395 25.6562Z" fill="#FF00E5"/>
<rect x="0.5" y="0.5" width="95" height="55" rx="21.5" stroke="#FF00E5"/>
</svg>
