<svg width="57" height="81" viewBox="0 0 57 81" fill="none" xmlns="http://www.w3.org/2000/svg">
<g clip-path="url(#clip0_1200_2309)">
<circle cx="28" cy="28" r="11" fill="white"/>
<path d="M28.2917 0C12.6504 0 0 12.6504 0 28.2917C0 49.5104 28.2917 80.8333 28.2917 80.8333C28.2917 80.8333 56.5833 49.5104 56.5833 28.2917C56.5833 12.6504 43.9329 0 28.2917 0ZM28.2917 38.3958C25.6119 38.3958 23.0418 37.3313 21.1469 35.4364C19.252 33.5415 18.1875 30.9715 18.1875 28.2917C18.1875 25.6119 19.252 23.0418 21.1469 21.1469C23.0418 19.252 25.6119 18.1875 28.2917 18.1875C30.9715 18.1875 33.5415 19.252 35.4364 21.1469C37.3313 23.0418 38.3958 25.6119 38.3958 28.2917C38.3958 30.9715 37.3313 33.5415 35.4364 35.4364C33.5415 37.3313 30.9715 38.3958 28.2917 38.3958Z" fill="#15803D"/>
</g>
<defs>
<clipPath id="clip0_1200_2309">
<rect width="57" height="81" fill="white"/>
</clipPath>
</defs>
</svg>
